# xmcd
#
# Track frame offsets:
#	150
#	11356
#	20164
#	31641
#	44551
#	54899
#	66379
#	78057
#	90649
#	101788
#	112605
#	123814
#	134611
#	145895
#	157538
#	169138
#	180734
#	191058
#	202921
#	213981
#
# Disc length: 2996 seconds
#
# Revision: 1
# Processed by: cddbd v1.5.2PL0 Copyright (c) Steve Scherf et al.
# Submitted via: audiograbber 1.83.01
#
DISCID=000bb214
DTITLE=Patsy CLINE - Best of
DYEAR=2006
DGENRE=Country
TTITLE0=A stranger in my arms
TTITLE1=Come on In
TTITLE2=Crazy dreams
TTITLE3=Yes I understand
TTITLE4=Walkin' dream
TTITLE5=Walkin' afdter midnight
TTITLE6=Cry not for me
TTITLE7=Fingerprints
TTITLE8=Hidin' out
TTITLE9=Honky tonk merry go round
TTITLE10=Hungry for love
TTITLE11=I can see an angel
TTITLE12=Just ou of reach
TTITLE13=Let the teardrops fall
TTITLE14=I've loved and lost again
TTITLE15=In care of the blue
TTITLE16=Pick me up on your way down
TTITLE17=Today, tomorrow and for ever
TTITLE18=Stop the world
TTITLE19=I cried all the way to Altar
EXTD=ZYX Music
EXTT0=
EXTT1=
EXTT2=
EXTT3=
EXTT4=
EXTT5=
EXTT6=
EXTT7=
EXTT8=
EXTT9=
EXTT10=
EXTT11=
EXTT12=
EXTT13=
EXTT14=
EXTT15=
EXTT16=
EXTT17=
EXTT18=
EXTT19=
PLAYORDER=
